<svg xmlns="http://www.w3.org/2000/svg" viewBox="251 251 522 522" width="128" height="128" role="img" aria-label="Baitly">
  <!-- Nouveau mark Baitly (version statique pour usage <img>) : maison « flux »
       tracée en un trait continu + deux packets figés (request bleu / response
       teal) qui conservent l'identité animée du logo web. -->
  <path fill="none" stroke="#6B8A9A" stroke-width="21" stroke-linecap="round" stroke-linejoin="round"
    d="M463 590.25 A30.25 30.25 0 0 1 463 529.75 A30.25 30.25 0 0 1 463 590.25 V710 A30 30 0 0 1 433 740 H368 A65 65 0 0 1 303 675 V441.8 A28 28 0 0 1 313.9 419.6 L478.2 294.1 A54 54 0 0 1 543.8 294.1 L708.1 419.6 A28 28 0 0 1 719 441.8 V675 A65 65 0 0 1 654 740 H589 A30 30 0 0 1 559 710 V590.25 A30.25 30.25 0 0 1 559 529.75 A30.25 30.25 0 0 1 559 590.25"/>
  <path fill="none" stroke="#2563EB" stroke-width="21" stroke-linecap="round" stroke-linejoin="round"
    pathLength="100" stroke-dasharray="5 95" stroke-dashoffset="-18"
    d="M463 590.25 A30.25 30.25 0 0 1 463 529.75 A30.25 30.25 0 0 1 463 590.25 V710 A30 30 0 0 1 433 740 H368 A65 65 0 0 1 303 675 V441.8 A28 28 0 0 1 313.9 419.6 L478.2 294.1 A54 54 0 0 1 543.8 294.1 L708.1 419.6 A28 28 0 0 1 719 441.8 V675 A65 65 0 0 1 654 740 H589 A30 30 0 0 1 559 710 V590.25 A30.25 30.25 0 0 1 559 529.75 A30.25 30.25 0 0 1 559 590.25"/>
  <path fill="none" stroke="#14B8A6" stroke-width="21" stroke-linecap="round" stroke-linejoin="round"
    pathLength="100" stroke-dasharray="5 95" stroke-dashoffset="-63"
    d="M463 590.25 A30.25 30.25 0 0 1 463 529.75 A30.25 30.25 0 0 1 463 590.25 V710 A30 30 0 0 1 433 740 H368 A65 65 0 0 1 303 675 V441.8 A28 28 0 0 1 313.9 419.6 L478.2 294.1 A54 54 0 0 1 543.8 294.1 L708.1 419.6 A28 28 0 0 1 719 441.8 V675 A65 65 0 0 1 654 740 H589 A30 30 0 0 1 559 710 V590.25 A30.25 30.25 0 0 1 559 529.75 A30.25 30.25 0 0 1 559 590.25"/>
</svg>
