<svg xmlns="http://www.w3.org/2000/svg" width="134" height="27" fill="none" xmlns:v="https://vecta.io/nano"><g clip-path="url(#A)" fill="#fff"><path d="M6.815 13.453l1.57-2.069 6.684-8.829c.678-.95 1.606-1.695 2.681-2.152a2.87 2.87 0 0 1 1.314-.282 2.86 2.86 0 0 1 1.298.347 2.07 2.07 0 0 1 .87.788 2.08 2.08 0 0 1 .303 1.134c-.003.405-.118.801-.334 1.144a2.18 2.18 0 0 1-.887.796 3.04 3.04 0 0 1-2.5.2c-1.5-.5-2.508.131-3.363 1.28l-1.961 2.5a.4.4 0 0 0-.129.25c-.011.096.015.194.071.273l7.775 13.421a4.6 4.6 0 0 0 .817 1.094c.371.297.773.553 1.2.763.242.139.557.221.469.588s-.408.284-.666.279l-3.55-.089c-1.184-.001-2.345.056-3.517.087a.85.85 0 0 1-.331-.007.63.63 0 0 1-.338-.259.4.4 0 0 1 .114-.371c.69-.408.58-.972.294-1.534a90.26 90.26 0 0 0-1.623-3.033L9.325 13.1l-.258-.423-1.7 2.1c-.205.222-.361.483-.461.768s-.14.587-.118.888l.017 5.486.037.9a1.3 1.3 0 0 0 .911 1.365.47.47 0 0 1 .248.161.53.53 0 0 1 .1.36.45.45 0 0 1-.11.149.46.46 0 0 1-.161.093c-.141.03-.287.039-.431.024H.735a.9.9 0 0 1-.331-.006c-.137-.06-.339-.16-.353-.266-.019-.138.1-.307.192-.444a.46.46 0 0 1 .229-.13 1.3 1.3 0 0 0 .623-.511 1.3 1.3 0 0 0 .202-.78c.025-.333.024-.669.024-1V3.597a11.81 11.81 0 0 0-.083-1.365 1.04 1.04 0 0 0-.215-.555c-.124-.16-.293-.28-.485-.345-.082-.035-.162-.075-.239-.121C.093 1.1-.066.919.049.702.101.632.168.574.246.533A.58.58 0 0 1 .497.466l3.114.066L7.33.459c.167-.017.335-.011.5.019a.44.44 0 0 1 .274.244.46.46 0 0 1-.012.188.45.45 0 0 1-.088.167c-.101.104-.227.181-.365.225a1.13 1.13 0 0 0-.763 1.041c-.035.277-.055.555-.059.834v9.998c-.015.058-.01.113-.002.278zm48.306 8.538l-.413.654a6.23 6.23 0 0 1-3.562 2.453c-1.801.547-3.739.428-5.459-.335a4.47 4.47 0 0 1-2.673-4.623 5.57 5.57 0 0 1 3.257-4.715 20.11 20.11 0 0 1 4.338-1.53l3.463-1c.986-.324.988-.371.962-1.405.014-1.114-.103-2.226-.35-3.312-.489-1.832-1.805-2.29-3.482-1.946-.399.072-.769.26-1.062.541s-.497.642-.586 1.038l-.531 2.238a2.14 2.14 0 0 1-.528.922c-.251.258-.562.449-.906.556s-.709.125-1.061.053-.682-.231-.957-.463a2.1 2.1 0 0 1-.664-2.126 3.89 3.89 0 0 1 2.125-2.649A9.02 9.02 0 0 1 51.04 5.29a14.98 14.98 0 0 1 4.292.3 5.71 5.71 0 0 1 4.608 5.09c.08.652.124 1.307.131 1.964l.079 9.732a4.93 4.93 0 0 0 .072.764 1.44 1.44 0 0 0 .694 1.087.49.49 0 0 1 .149.176c.035.07.052.147.051.224a.49.49 0 0 1-.129.192.47.47 0 0 1-.204.108 8.22 8.22 0 0 1-3.664-.344 3.1 3.1 0 0 1-1.844-2.076l-.156-.517zm-.133-7.915l-1.312.619-3.163 1.5a3.98 3.98 0 0 0-2.325 3.32c-.076.58.047 1.169.349 1.67s.765.885 1.313 1.089a4.12 4.12 0 0 0 1.978.182 3.52 3.52 0 0 0 3.146-3.219l.012-5.157.001-.004zm-26.928.017c.028 2.168.791 4.262 2.165 5.939a6.8 6.8 0 0 0 4.573 2.308 8.2 8.2 0 0 0 4.671-1 1.1 1.1 0 0 1 .393-.176c.195-.011.479-.015.566.1a.67.67 0 0 1-.023.579 3.04 3.04 0 0 1-.519.651 8.92 8.92 0 0 1-5.805 2.859 10.33 10.33 0 0 1-5.964-1.094c-2.041-1.044-3.606-2.829-4.372-4.99a10.92 10.92 0 0 1-.766-4.281 10.91 10.91 0 0 1 .966-4.24 8.79 8.79 0 0 1 6.46-5.261 9.66 9.66 0 0 1 6.16.565 7.22 7.22 0 0 1 4.273 5.714c.07.497.093.999.069 1.5-.014.619-.26.831-.88.831H28.06v-.002zm-.009-1.4h6.014a11.68 11.68 0 0 0 1.137-.057 1.02 1.02 0 0 0 1.069-1.091c.106-1.369-.261-2.732-1.041-3.862a3.23 3.23 0 0 0-.959-1.006c-.389-.262-.83-.436-1.292-.511s-.936-.048-1.387.078-.87.349-1.227.653a5.46 5.46 0 0 0-1.5 2.108 10.67 10.67 0 0 0-.813 3.689l-.001-.001zM71.59 5.197a14.41 14.41 0 0 1 4.094.659c.915.27 1.738.787 2.379 1.493a2.46 2.46 0 0 1 .658 1.638c.009.221-.03.442-.113.647a1.56 1.56 0 0 1-1.58.967 2.23 2.23 0 0 1-1.283-.372 2.24 2.24 0 0 1-.842-1.037l-.608-1.337a2.77 2.77 0 0 0-2.151-1.619 4.76 4.76 0 0 0-2.412.149c-.447.14-.849.396-1.163.743a2.64 2.64 0 0 0-.628 1.229c-.096.458-.069.934.079 1.378a2.63 2.63 0 0 0 .765 1.149 8.94 8.94 0 0 0 2.835 1.737l4.399 1.769a6.85 6.85 0 0 1 3.035 2.232 4.4 4.4 0 0 1 .765 2.976 5.43 5.43 0 0 1-.517 2.081c-.309.652-.745 1.237-1.282 1.719a7.14 7.14 0 0 1-3.1 1.585 15.23 15.23 0 0 1-6.67.163 7.14 7.14 0 0 1-3.976-1.977 3.74 3.74 0 0 1-1.035-2.091 1.9 1.9 0 0 1 1.133-2.065 1.82 1.82 0 0 1 2.255.893c.356.714.62 1.475.915 2.219a3.57 3.57 0 0 0 1.576 1.961 3.56 3.56 0 0 0 2.478.432 3.5 3.5 0 0 0 2.794-1.49c.236-.337.402-.718.487-1.121s.088-.818.009-1.222a3.04 3.04 0 0 0-.471-1.128 3.05 3.05 0 0 0-.875-.853 14.33 14.33 0 0 0-3.111-1.529l-4.077-1.758a4.9 4.9 0 0 1-2.206-2.039c-.466-.881-.659-1.881-.556-2.873a5.01 5.01 0 0 1 1.139-2.695 7.15 7.15 0 0 1 4.332-2.323c.841-.154 1.691-.197 2.531-.29zm61.858 7.54a6.63 6.63 0 0 0-.922-1.579c-2.51-3.099-5.883-3.899-9.686-3.262-2.64.51-5.149 1.554-7.371 3.067-4.119 2.64-14.598 11.27-19.541 12.169l-.065.01c-.049.008-.1.013-.144.019a6.06 6.06 0 0 1-.466.04c-.086 0-.175.008-.256 0l-.008.006a8.58 8.58 0 0 1-1.06-.034 6.8 6.8 0 0 1-4.572-2.308 8.75 8.75 0 0 1-2.037-4.735 14.02 14.02 0 0 1-.134-1.931 12.4 12.4 0 0 1 .11-1.823 9.71 9.71 0 0 1 .7-2.541 5.47 5.47 0 0 1 1.5-2.108c.623-.53 1.422-.806 2.24-.773a3.43 3.43 0 0 1 2.625 1.559c.78 1.13 1.147 2.494 1.041 3.862a1.02 1.02 0 0 1-1.069 1.089 12 12 0 0 1-1.137.057h-.707a.7.7 0 0 0 0 1.4h6.728c.571-.015.8-.231.819-.823v-.006a7.91 7.91 0 0 0-.069-1.5 7.22 7.22 0 0 0-4.273-5.714c-1.316-.598-2.755-.877-4.199-.814a11.32 11.32 0 0 0-1.961.25 8.79 8.79 0 0 0-6.456 5.26c-.603 1.334-.932 2.777-.966 4.24a10.92 10.92 0 0 0 .766 4.281c.767 2.161 2.331 3.946 4.372 4.99a10.07 10.07 0 0 0 4.49 1.151c4.873.288 10.709-3.299 13.665-4.945 3.834-2.14 7.599-4.42 11.881-5.619a20.61 20.61 0 0 1 8.462-.771c1.74.242 3.462.61 5.19.945 2.297.448 3.427-.961 2.511-3.112z"/></g><defs><clipPath id="A"><path fill="#fff" transform="translate(0 .12)" d="M0 0h133.77v26.14H0z"/></clipPath></defs></svg>