<svg width="180" height="36" viewBox="0 0 180 36" fill="none" xmlns="http://www.w3.org/2000/svg">
<path d="M59.6728 27.9844C59.7893 27.2855 59.4981 26.8487 58.7699 26.674C57.4593 26.3536 56.469 25.5674 54.7506 23.558L52.6535 20.9662C54.7797 19.8887 55.8283 18.1414 55.8283 15.6952C55.8283 13.6859 55.1001 12.1133 53.6147 10.9193C52.0128 9.66713 49.5662 9.02646 46.3041 9.02646H42.3722C41.6149 9.02646 41.2363 9.40504 41.2363 10.1622V28.5669C41.2363 29.324 41.6149 29.7026 42.3722 29.7026H44.411C45.1682 29.7026 45.5469 29.324 45.5469 28.5669V22.4223H48.3429L50.3817 25.1014C51.9254 27.1108 53.2069 28.4213 54.2555 29.0328C55.304 29.6444 56.6438 29.9647 58.2748 29.9647C58.9738 29.9356 59.3816 29.6152 59.4981 28.9454L59.6728 27.9844ZM50.0614 18.6947C49.5662 19.1316 48.8381 19.3354 47.9061 19.3354C47.2944 19.3354 46.508 19.3063 45.5469 19.2772V12.4337H46.3624C48.0226 12.4337 49.2167 12.7249 50.0031 13.3073C50.9351 13.9188 51.4011 14.8507 51.4011 16.0447C51.4011 17.2387 50.9643 18.1123 50.0614 18.6947Z" fill="white"/>
<path d="M74.3443 27.3146C74.3735 26.5284 74.024 26.1207 73.2376 26.1207H66.2183V20.9953H72.0143C72.7716 20.9953 73.1502 20.6167 73.1502 19.8596V18.6656C73.1502 17.9085 72.7716 17.5299 72.0143 17.5299H66.2183V12.5793H72.4803C73.2376 12.5793 73.6162 12.2007 73.6162 11.4435V10.1622C73.6162 9.40504 73.2376 9.02646 72.4803 9.02646H63.0436C62.2863 9.02646 61.9077 9.40504 61.9077 10.1622V28.5669C61.9077 29.324 62.2863 29.7026 63.0436 29.7026H73.0628C73.791 29.7026 74.1696 29.3531 74.2278 28.6251L74.3443 27.3146Z" fill="white"/>
<path d="M97.0459 10.1622C97.0459 9.40504 96.6673 9.02646 95.91 9.02646H94.1042C93.3469 9.02646 92.9683 9.40504 92.9683 10.1622V20.9371C92.9683 21.7234 92.9974 22.5679 93.0265 23.4124L83.3277 9.72537C83.0073 9.25943 82.5413 9.02646 81.9588 9.02646H79.221C78.4637 9.02646 78.0851 9.40504 78.0851 10.1622V28.5669C78.0851 29.324 78.4637 29.7026 79.221 29.7026H81.0559C81.784 29.7026 82.1627 29.324 82.1627 28.5669V18.3744C82.1627 16.7145 82.1335 15.6661 82.1044 15.2293L91.7741 28.9746C92.0945 29.4696 92.5605 29.7026 93.143 29.7026H95.91C96.6673 29.7026 97.0459 29.324 97.0459 28.5669V10.1622Z" fill="white"/>
<path d="M116.03 10.1913C116.088 9.40504 115.709 9.02646 114.923 9.02646H100.768C100.01 9.02646 99.6318 9.40504 99.6318 10.1622V11.4726C99.6318 12.2298 100.01 12.6084 100.768 12.6084H105.573V28.5669C105.573 29.324 105.952 29.7026 106.68 29.7026H108.719C109.476 29.7026 109.855 29.324 109.855 28.5669V12.6084H114.777C115.505 12.6084 115.884 12.2589 115.942 11.5309L116.03 10.1913Z" fill="white"/>
<path d="M130.983 27.3146C131.012 26.5284 130.662 26.1207 129.876 26.1207H122.857V20.9953H128.653C129.41 20.9953 129.789 20.6167 129.789 19.8596V18.6656C129.789 17.9085 129.41 17.5299 128.653 17.5299H122.857V12.5793H129.119C129.876 12.5793 130.255 12.2007 130.255 11.4435V10.1622C130.255 9.40504 129.876 9.02646 129.119 9.02646H119.682C118.925 9.02646 118.546 9.40504 118.546 10.1622V28.5669C118.546 29.324 118.925 29.7026 119.682 29.7026H129.701C130.429 29.7026 130.808 29.3531 130.866 28.6251L130.983 27.3146Z" fill="white"/>
<path d="M147.16 27.3146C147.189 26.5284 146.84 26.1207 146.053 26.1207H139.034V10.1622C139.034 9.40504 138.655 9.02646 137.898 9.02646H135.859C135.102 9.02646 134.723 9.40504 134.723 10.1622V28.5669C134.723 29.324 135.102 29.7026 135.859 29.7026H145.879C146.607 29.7026 146.985 29.3531 147.044 28.6251L147.16 27.3146Z" fill="white"/>
<path d="M162.598 27.3146C162.627 26.5284 162.278 26.1207 161.491 26.1207H154.472V10.1622C154.472 9.40504 154.093 9.02646 153.336 9.02646H151.297C150.54 9.02646 150.161 9.40504 150.161 10.1622V28.5669C150.161 29.324 150.54 29.7026 151.297 29.7026H161.317C162.045 29.7026 162.423 29.3531 162.482 28.6251L162.598 27.3146Z" fill="white"/>
<path d="M171.555 29.7026C172.312 29.7026 172.691 29.324 172.691 28.5669V21.2865L179.768 10.3952C180.264 9.60888 179.943 9.02646 179.011 9.02646H176.972C176.361 9.02646 175.924 9.28855 175.603 9.78361L170.856 17.4134L166.108 9.81273C165.788 9.28855 165.351 9.02646 164.769 9.02646H162.206C161.274 9.02646 160.953 9.60888 161.448 10.3952L168.38 21.3157V28.5669C168.38 29.324 168.759 29.7026 169.516 29.7026H171.555Z" fill="white"/>
<path d="M31.9006 35.1233C31.2228 35.1604 30.7515 35.2081 30.2749 35.2081C27.6271 35.2081 24.9793 35.2081 22.3315 35.2081C15.4473 35.261 8.56301 35.3087 1.67875 35.4199C0.43958 35.4199 -0.00524893 35.1128 4.66559e-05 33.8314C0.0600633 23.2736 0.0653589 12.7193 0.0159334 2.1686C0.0159334 0.987868 0.338964 0.58017 1.60461 0.58017C6.90019 0.643707 12.1958 0.58017 17.4914 0.611938C22.2044 0.638412 26.0014 2.32745 28.4691 6.63211C30.9369 10.9368 29.8513 17.2693 25.8213 20.3985C24.2326 21.6322 24.2326 21.6322 25.2918 23.3954L31.5247 34.165C31.6714 34.4756 31.797 34.7958 31.9006 35.1233Z" fill="#EF839D"/>
</svg>
