<svg width="160" height="160" viewBox="0 0 160 160" fill="none" xmlns="http://www.w3.org/2000/svg">
<g clip-path="url(#clip0_417_2858)">
<path d="M115.266 94.1747C119.507 94.1747 122.957 90.7247 122.957 86.4844C122.957 85.1897 121.907 84.1406 120.613 84.1406C119.318 84.1406 118.269 85.1897 118.269 86.4844C118.269 88.1403 116.922 89.4872 115.266 89.4872C113.611 89.4872 112.263 88.14 112.263 86.4844C112.263 85.1897 111.214 84.1406 109.92 84.1406C108.625 84.1406 107.576 85.1897 107.576 86.4844C107.576 90.7247 111.026 94.1747 115.266 94.1747Z" fill="#b2974a"/>
<path d="M127.555 81.0289C128.849 81.0289 129.898 79.9798 129.898 78.6852V76.2361C131.056 76.0927 131.952 75.1061 131.952 73.9102C131.952 72.6155 130.902 71.5664 129.608 71.5664H127.555C126.26 71.5664 125.211 72.6155 125.211 73.9102V78.6852C125.211 79.9798 126.26 81.0289 127.555 81.0289Z" fill="#b2974a"/>
<path d="M100.634 76.2361V78.6852C100.634 79.9798 101.683 81.0289 102.977 81.0289C104.272 81.0289 105.321 79.9798 105.321 78.6852V73.9102C105.321 72.6155 104.272 71.5664 102.977 71.5664H100.924C99.6299 71.5664 98.5806 72.6155 98.5806 73.9102C98.5806 75.1058 99.4765 76.0927 100.634 76.2361Z" fill="#b2974a"/>
<path d="M150.295 79.1063C150.961 77.6985 151.335 76.1272 151.335 74.4697C151.335 71.7113 150.302 69.1907 148.605 67.2694C148.875 66.8878 149.034 66.4235 149.034 65.9207C149.034 58.9982 149.38 54.8928 147.297 48.9385C146.87 47.7166 145.533 47.0713 144.311 47.4997C143.089 47.9269 142.445 49.2641 142.872 50.486C144.574 55.3519 144.346 58.7272 144.346 63.5769C141.357 63.5769 133.303 63.5769 129.908 63.5769C123.127 63.5769 117.61 58.06 117.609 51.2788C117.609 49.9841 116.56 48.935 115.266 48.935C113.971 48.935 112.922 49.9841 112.922 51.2788C112.922 58.06 107.405 63.5769 100.623 63.5769H90.4394H86.185V59.2107C86.185 44.645 98.035 32.795 112.601 32.795C112.778 32.795 112.922 32.9391 112.922 33.1163C112.922 34.4107 113.971 35.4597 115.266 35.4597C116.56 35.4597 117.609 34.4107 117.609 33.1163C117.609 32.9391 117.753 32.795 117.931 32.795C125.567 32.7953 132.826 36.0991 137.849 41.8591C138.699 42.835 140.18 42.9357 141.156 42.0857C142.131 41.2347 142.232 39.7544 141.382 38.7788C135.469 31.9975 126.922 28.1082 117.931 28.1078C116.952 28.1078 116.038 28.39 115.266 28.8772C114.494 28.39 113.58 28.1078 112.601 28.1078C95.4506 28.1078 81.4978 42.0607 81.4978 59.211V65.921C81.4978 66.4235 81.6575 66.8882 81.9266 67.2697C81.1397 68.1607 80.4953 69.1797 80.0316 70.2928C79.75 66.8366 78.0063 63.8013 75.4028 61.8157V52.8866C75.4028 35.3066 61.1006 21.0044 43.5206 21.0044C39.1556 21.0044 40.9047 20.9291 34.8672 21.401C26.5391 22.051 19.0863 26.5075 14.5747 33.4407L7.51656 31.1847C6.05406 30.716 4.53562 31.7641 4.46187 33.3053C4.42844 34.0116 3.72125 49.7072 6.58312 60.6394C2.68406 62.595 0 66.6291 0 71.2807C0 77.3163 4.5175 82.3169 10.3491 83.0788C11.8169 89.3763 15.2844 95.0928 20.2447 99.3325C21.5453 100.444 22.9331 101.433 24.3863 102.303H19.4544C11.3509 102.303 4.75844 108.896 4.75844 116.999V137.537C4.75844 138.832 5.80781 139.881 7.10219 139.881H10.9956C12.29 139.881 13.3394 138.832 13.3394 137.537C13.3394 136.243 12.29 135.193 10.9956 135.193H9.44594V116.999C9.44594 111.48 13.9356 106.99 19.4544 106.99H26.2725C27.4372 113.901 33.6872 119.097 40.9888 118.626C47.5984 118.2 52.8353 113.227 53.8875 106.99H60.7066C66.2253 106.99 70.7153 111.48 70.7153 116.999V135.193H21.9334C20.6391 135.193 19.5897 136.243 19.5897 137.537C19.5897 138.832 20.6391 139.881 21.9334 139.881H73.0594C74.3537 139.881 75.4031 138.832 75.4031 137.537V116.999C75.4031 115.047 75.0175 113.185 74.3237 111.479H78.0894C80.4472 111.479 82.6959 111.008 84.7513 110.16C83.3053 112.396 82.4622 115.057 82.4622 117.912V137.537C82.4622 138.832 83.5116 139.881 84.8059 139.881H145.884C147.178 139.881 148.228 138.832 148.228 137.537V117.912C148.228 115.092 147.405 112.462 145.992 110.243C147.99 111.038 150.166 111.479 152.444 111.479H157.656C158.951 111.479 160 110.43 160 109.136V94.7813C160 88.1044 156.13 82.0338 150.295 79.1063ZM100.624 68.2647C106.853 68.2647 112.31 64.8947 115.266 59.8813C118.223 64.8947 123.679 68.2647 129.909 68.2647H140.442C143.864 68.2647 146.647 71.0482 146.647 74.4697C146.647 76.1428 145.979 77.6603 144.899 78.7772C143.665 80.0522 141.953 80.7394 140.193 80.6678C139.008 80.6132 137.978 81.456 137.783 82.6228C136 93.2832 126.778 101.659 115.266 101.659C107.133 101.659 99.5359 97.3594 95.4481 90.2088C95.41 90.1122 95.3663 90.0175 95.3153 89.9263C94.3609 88.2144 93.6372 86.406 93.1541 84.5297C93.1444 84.4922 93.1366 84.4541 93.1272 84.4166C92.9941 83.8878 92.8675 83.3269 92.7497 82.6225C92.555 81.4585 91.5203 80.6138 90.3391 80.6675C86.8316 80.81 83.8853 77.9803 83.8853 74.4691C83.8853 71.0475 86.6691 68.2641 90.0903 68.2641C90.1756 68.2641 90.2606 68.2678 90.3453 68.271C90.4453 68.275 90.5438 68.2725 90.6413 68.2641H100.624V68.2647ZM115.305 116.206C110.845 116.206 107.217 112.578 107.217 108.118V105.936V105.148C109.877 105.964 112.655 106.347 115.266 106.347C117.963 106.347 120.771 105.938 123.392 105.125V108.118C123.392 112.438 119.987 115.978 115.72 116.195C115.582 116.202 115.444 116.206 115.305 116.206ZM96.7787 103.592C96.7781 103.592 96.7769 103.592 96.7759 103.592C95.1694 103.593 93.6256 103.863 92.1828 104.354C93.6312 102.396 94.6803 100.127 95.2128 97.6663C95.9003 98.3985 96.6272 99.0982 97.3966 99.7557C98.9806 101.109 100.705 102.268 102.53 103.22V103.592H96.7787ZM128.08 103.182C130.733 101.786 133.16 99.966 135.319 97.6666C135.846 100.098 136.877 102.342 138.299 104.284C135.623 103.419 134.227 103.592 128.08 103.592L128.08 103.182ZM9.0675 36.6013L14.9141 38.4697C15.9794 38.8094 17.1375 38.3503 17.6787 37.371C21.2697 30.8747 27.8319 26.6513 35.2322 26.0741C41.1244 25.6141 39.3378 25.6916 43.5206 25.6916C58.5156 25.6916 70.7153 37.891 70.7153 52.8863V59.6566C68.6672 59.2157 69.315 59.3913 37.1712 59.3913C34.8344 59.3913 32.5959 58.8719 30.5791 57.9341C26.1419 55.871 22.7769 51.7825 21.7913 46.7444C21.4147 44.8194 19.0453 44.2403 17.7797 45.5932C14.3988 49.2075 12.035 53.4891 10.7516 57.9325C9.14 50.6425 9.00969 41.3397 9.0675 36.6013ZM14.5991 80.4391C14.4094 79.3057 13.4284 78.4819 12.2884 78.4819C12.2569 78.4819 12.225 78.4825 12.1931 78.4838C12.0953 78.4878 11.9975 78.4916 11.8988 78.4916C7.9225 78.4916 4.6875 75.2569 4.6875 71.2807C4.6875 67.3713 7.80375 64.2113 11.6369 64.076C11.6462 64.0757 11.6559 64.0757 11.6653 64.0753C11.8397 64.07 12.0141 64.07 12.1875 64.0772C12.1913 64.0772 12.195 64.0772 12.1987 64.0775C12.2059 64.0778 12.2131 64.0769 12.2203 64.0772C13.3894 64.1135 14.4056 63.2782 14.5991 62.1222C15.1281 58.9588 16.2391 55.9494 17.8684 53.2213C18.1013 52.8316 18.3447 52.4475 18.5984 52.0697C21.8247 59.235 29.0381 64.0791 37.1712 64.0791H68.5134H68.515C69.6528 64.1316 70.8378 64.475 71.8594 65.0835C71.8775 65.0944 71.8969 65.1016 71.9153 65.1119C74.0034 66.3747 75.3872 68.6622 75.3872 71.2803C75.3872 75.2566 72.1522 78.4913 68.1759 78.4913C68.0772 78.4913 67.9791 78.4872 67.8813 78.4835C66.7022 78.4413 65.6703 79.2741 65.4753 80.4388C63.3512 93.14 52.4219 101.945 40.0372 101.945C27.5572 101.946 16.7081 93.0497 14.5991 80.4391ZM39.6103 113.959C35.0241 113.729 31.2847 110.162 30.8153 105.613C30.8119 105.578 30.81 105.544 30.8069 105.509C30.7975 105.408 30.7897 105.306 30.7838 105.204C33.8703 106.189 37.0888 106.633 40.0378 106.633C43.0425 106.633 46.2869 106.173 49.3809 105.175C49.0975 110.279 44.7216 114.214 39.6103 113.959ZM60.7069 102.303H55.6891C57.1422 101.433 58.53 100.444 59.8306 99.3325C64.7906 95.0932 68.2584 89.3766 69.7259 83.0788C74.0825 82.5097 77.705 79.5744 79.2588 75.6094C79.3881 76.8482 79.7259 78.0257 80.2366 79.1063C74.4016 82.0338 70.5319 88.1041 70.5319 94.7813V106.081C67.9269 103.734 64.4812 102.303 60.7069 102.303ZM75.2197 106.792V94.7813C75.2197 89.566 78.4416 84.8532 83.1956 82.9016C84.7525 84.1728 86.6272 84.9716 88.5016 85.2469C89.0428 87.5078 89.895 89.7163 90.9241 91.6628V93.956C90.9241 101.033 85.1663 106.792 78.0888 106.792H75.2197V106.792ZM143.54 135.193H87.1494V117.912C87.1494 112.601 91.4706 108.28 96.7819 108.28H102.531C102.617 115.201 108.275 120.893 115.305 120.893C122.254 120.893 127.991 115.288 128.079 108.28H133.907C139.219 108.28 143.54 112.601 143.54 117.912V135.193H143.54ZM155.312 106.792H152.443C145.366 106.792 139.608 101.034 139.608 93.9563V91.6632C140.652 89.6875 141.496 87.4794 142.03 85.2472C143.791 84.9888 145.567 84.2732 147.111 83.0735C147.186 83.0157 147.263 82.9619 147.336 82.9022C152.091 84.8535 155.312 89.566 155.312 94.7813V106.792Z" fill="#b2974a"/>
<path d="M40.0375 93.0697C44.625 93.0697 48.3572 89.3375 48.3572 84.75C48.3572 83.4553 47.3078 82.4062 46.0135 82.4062C44.7191 82.4062 43.6697 83.4553 43.6697 84.75C43.6697 86.7528 42.0403 88.3822 40.0375 88.3822C38.0347 88.3822 36.405 86.7528 36.405 84.75C36.405 83.4553 35.3557 82.4062 34.0613 82.4062C32.7669 82.4062 31.7175 83.4553 31.7175 84.75C31.7178 89.3372 35.45 93.0697 40.0375 93.0697Z" fill="#b2974a"/>
<path d="M26.3025 68.4297C25.0081 68.4297 23.9587 69.4787 23.9587 70.7734V75.9553C23.9587 77.25 25.0081 78.2991 26.3025 78.2991C27.5969 78.2991 28.6462 77.25 28.6462 75.9553V70.7734C28.6462 69.4791 27.5969 68.4297 26.3025 68.4297Z" fill="#b2974a"/>
<path d="M53.7725 78.2991C55.0668 78.2991 56.1162 77.25 56.1162 75.9553V70.7734C56.1162 69.4787 55.0668 68.4297 53.7725 68.4297C52.4781 68.4297 51.4287 69.4787 51.4287 70.7734V75.9553C51.4287 77.25 52.4781 78.2991 53.7725 78.2991Z" fill="#b2974a"/>
</g>
<defs>
<clipPath id="clip0_417_2858">
<rect width="160" height="160" fill="white"/>
</clipPath>
</defs>
</svg>
