<svg width="160" height="160" viewBox="0 0 160 160" fill="none" xmlns="http://www.w3.org/2000/svg">
<path d="M76.9794 84.5297L60.1566 79.4828V72.6688C66.3738 68.065 70.58 60.8925 71.1772 52.7297C74.4247 51.7522 76.7972 48.7337 76.7972 45.1719C76.7972 42.8663 75.7609 40.6809 74.0238 39.1953V22.9844C74.0238 18.54 71.7728 14.3828 68.0838 11.8916C66.8503 7.25781 62.6941 4 57.8125 4H35.625C23.6275 4 13.8672 13.7603 13.8672 25.7578V39.1953C12.13 40.6809 11.0938 42.8659 11.0938 45.1719C11.0938 48.7337 13.4663 51.7522 16.7138 52.7297C17.3109 60.8925 21.5169 68.065 27.7344 72.6688V79.4828L7.59969 85.5231C3.05406 86.8869 0 90.9916 0 95.7375V122.828C0 124.123 1.04938 125.172 2.34375 125.172H2.77344V153.336C2.77344 154.63 3.82281 155.68 5.11719 155.68C6.41156 155.68 7.46094 154.63 7.46094 153.336V125.172H16.6406V153.336C16.6406 154.63 17.69 155.68 18.9844 155.68C20.2788 155.68 21.3281 154.63 21.3281 153.336V108.961C21.3281 108.597 21.2434 108.238 21.0806 107.913L15.5338 96.8191C14.955 95.6612 13.5475 95.1919 12.3894 95.7709C11.2316 96.3497 10.7622 97.7575 11.3413 98.9153L16.6406 109.514V120.484H5.11719H4.6875V95.7375C4.6875 93.0778 6.39938 90.7772 8.94688 90.0128L17.3634 87.4878C20.2247 99.6456 31.2359 108.531 43.9456 108.531C50.4803 108.531 56.8034 106.186 61.75 101.928C66.1431 98.1472 69.2078 93.0734 70.5222 87.4859L75.6322 89.0194C75.8569 89.0869 76.0834 89.1187 76.3066 89.1187C77.3147 89.1187 78.2459 88.4631 78.5506 87.4478C78.9225 86.2081 78.2191 84.9016 76.9794 84.5297ZM21.3281 50.7188C21.3281 49.4244 20.2788 48.375 18.9844 48.375C17.2181 48.375 15.7813 46.9381 15.7813 45.1719C15.7813 44.035 16.3825 43.0063 17.3897 42.42C17.4416 42.3897 17.4888 42.3541 17.5378 42.3203C17.9838 42.0937 18.4784 41.9688 18.9844 41.9688H22.5322C24.7384 41.9688 26.6894 40.5625 27.3869 38.4697L29.0016 33.6259C34.5116 33.5044 51.8766 32.7331 61.6341 27.8541C62.7919 27.2753 63.2613 25.8675 62.6822 24.7097C62.1034 23.5519 60.6959 23.0825 59.5378 23.6616C49.0719 28.8944 27.5209 28.9609 27.3044 28.9609C26.2956 28.9613 25.4 29.6066 25.0813 30.5634L22.94 36.9875C22.8813 37.1631 22.7178 37.2812 22.5322 37.2812H18.9844C18.8409 37.2812 18.6978 37.2875 18.5547 37.2953V25.7578C18.5547 16.3453 26.2125 8.6875 35.625 8.6875H57.8125C60.7525 8.6875 63.2228 10.8062 63.6863 13.7253C63.7984 14.4316 64.2269 15.0481 64.8497 15.3994C67.6169 16.96 69.3356 19.8662 69.3356 22.9844V40.3944C69.3356 41.2288 69.7794 42.0003 70.5006 42.42C71.5078 43.0063 72.1091 44.035 72.1091 45.1719C72.1091 46.9381 70.6722 48.375 68.9059 48.375C67.6116 48.375 66.5622 49.4244 66.5622 50.7188C66.5622 63.19 56.4163 73.3359 43.945 73.3359C31.4738 73.3359 21.3281 63.1897 21.3281 50.7188ZM55.4688 75.4666V81.2266C55.4688 87.5806 50.2994 92.75 43.9453 92.75C37.6013 92.75 32.4391 87.5969 32.4225 81.2566C32.4225 81.2453 32.4219 81.2341 32.4219 81.2231V75.4666C35.9253 77.1044 39.8294 78.0234 43.9453 78.0234C48.0613 78.0234 51.9653 77.1047 55.4688 75.4666ZM58.6916 98.3759C54.5953 101.902 49.3581 103.844 43.9453 103.844C33.3203 103.844 24.1325 96.3478 21.8675 86.1369L28.0284 84.2887C29.4644 91.7678 36.0538 97.4375 43.9453 97.4375C51.8372 97.4375 58.4263 91.7678 59.8622 84.2884L66.0228 86.1369C64.9725 90.8719 62.405 95.18 58.6916 98.3759Z" fill="#b2974a"/>
<path d="M50.9687 57.3792C49.9634 56.5635 48.4875 56.7176 47.6722 57.7229C46.6753 58.9523 45.3519 59.6292 43.9456 59.6292C42.5394 59.6292 41.2159 58.9523 40.2191 57.7229C39.4041 56.7176 37.9278 56.5639 36.9225 57.3792C35.9172 58.1945 35.7634 59.6704 36.5787 60.6757C38.455 62.9892 41.14 64.3164 43.9453 64.3164C46.7506 64.3164 49.4356 62.9892 51.3125 60.6757C52.1278 59.6701 51.9741 58.1945 50.9687 57.3792Z" fill="#b2974a"/>
<path d="M32.8516 42.9883C31.5572 42.9883 30.5078 44.0377 30.5078 45.332V48.1055C30.5078 49.3998 31.5572 50.4492 32.8516 50.4492C34.1459 50.4492 35.1953 49.3998 35.1953 48.1055V45.332C35.1953 44.038 34.1459 42.9883 32.8516 42.9883Z" fill="#b2974a"/>
<path d="M55.0391 42.9883C53.7447 42.9883 52.6953 44.0377 52.6953 45.332V48.1055C52.6953 49.3998 53.7447 50.4492 55.0391 50.4492C56.3334 50.4492 57.3828 49.3998 57.3828 48.1055V45.332C57.3828 44.038 56.3334 42.9883 55.0391 42.9883Z" fill="#b2974a"/>
<path d="M125.852 71.2464C124.846 70.4307 123.37 70.5848 122.555 71.5901C121.558 72.8195 120.235 73.4964 118.828 73.4964C117.422 73.4964 116.099 72.8195 115.102 71.5901C114.287 70.5848 112.811 70.431 111.805 71.2464C110.8 72.0617 110.646 73.5376 111.462 74.5429C113.338 76.8567 116.023 78.1835 118.829 78.1835C121.634 78.1835 124.318 76.8567 126.195 74.5429C127.011 73.5379 126.857 72.0617 125.852 71.2464Z" fill="#b2974a"/>
<path d="M107.734 56.8555C106.44 56.8555 105.391 57.9048 105.391 59.1992V61.9727C105.391 63.267 106.44 64.3164 107.734 64.3164C109.029 64.3164 110.078 63.267 110.078 61.9727V59.1992C110.078 57.9045 109.029 56.8555 107.734 56.8555Z" fill="#b2974a"/>
<path d="M129.922 56.8555C128.627 56.8555 127.578 57.9048 127.578 59.1992V61.9727C127.578 63.267 128.627 64.3164 129.922 64.3164C131.216 64.3164 132.266 63.267 132.266 61.9727V59.1992C132.266 57.9052 131.216 56.8555 129.922 56.8555Z" fill="#b2974a"/>
<path d="M153.297 104.599L134.279 96.9922C134.117 96.9275 133.964 96.8503 133.818 96.7631C146.699 94.1694 152.731 91.7316 152.998 91.6222C153.977 91.2209 154.566 90.2128 154.435 89.1625C154.407 88.9419 151.68 66.8994 151.68 47.8516C151.68 29.7372 136.942 15 118.828 15C100.714 15 85.9766 29.7375 85.9766 47.8522C85.9766 66.8909 83.2488 88.9425 83.2213 89.1631C83.09 90.2134 83.6788 91.2212 84.6584 91.6228C84.9253 91.7322 90.9575 94.1697 103.838 96.7637C103.693 96.8509 103.539 96.9281 103.377 96.9928L84.36 104.6C80.2878 106.228 77.6566 110.115 77.6566 114.501V120.391H71.25V109.421L76.5494 98.8222C77.1284 97.6644 76.6591 96.2566 75.5013 95.6778C74.3434 95.0988 72.9356 95.5681 72.3569 96.7259L66.81 107.82C66.6472 108.145 66.5625 108.504 66.5625 108.868V153.243C66.5625 154.537 67.6119 155.587 68.9062 155.587C70.2006 155.587 71.25 154.537 71.25 153.243V125.079H77.6562V128.283C77.6562 128.905 77.9034 129.501 78.3431 129.941C78.7825 130.38 79.3784 130.627 80 130.627C80 130.627 80.0006 130.627 80.0012 130.627H80.4297V153.243C80.4297 154.537 81.4791 155.587 82.7734 155.587C84.0678 155.587 85.1172 154.537 85.1172 153.243V130.626H91.5234V153.243C91.5234 154.537 92.5728 155.587 93.8672 155.587C95.1616 155.587 96.2109 154.537 96.2109 153.243V122.735C96.2109 121.441 95.1616 120.391 93.8672 120.391C92.5728 120.391 91.5234 121.441 91.5234 122.735V125.938H82.3438V114.501C82.3438 112.043 83.8184 109.864 86.1006 108.952L95.4497 105.212C98.6619 115.341 108.085 122.305 118.828 122.305C129.571 122.305 138.994 115.341 142.207 105.212L151.556 108.952C153.838 109.864 155.312 112.043 155.312 114.501V125.938H146.133V122.735C146.133 121.441 145.083 120.391 143.789 120.391C142.495 120.391 141.445 121.441 141.445 122.735V153.243C141.445 154.537 142.495 155.587 143.789 155.587C145.083 155.587 146.133 154.537 146.133 153.243V130.626H152.539V153.243C152.539 154.537 153.588 155.587 154.883 155.587C156.177 155.587 157.227 154.537 157.227 153.243V130.626H157.656C158.951 130.626 160 129.576 160 128.282V114.501C160 110.115 157.369 106.228 153.297 104.599ZM90.6637 47.8519C90.6641 32.3219 103.298 19.6878 118.828 19.6878C134.358 19.6878 146.992 32.3222 146.992 47.8519C146.992 63.9425 148.906 82.1091 149.564 87.8825C146.968 88.7647 141.285 90.5031 132.266 92.2931V88.2581C133.567 87.5237 134.812 86.6834 135.981 85.7378C140.743 81.8887 144.108 76.4978 145.456 70.5587C145.905 68.5797 146.133 66.5387 146.133 64.4925C146.133 50.8409 136.244 48.8778 126.682 46.9794C120.566 45.7653 114.242 44.5097 109.198 40.4747C108.647 40.0331 107.924 39.8656 107.234 40.0166C106.544 40.1672 105.957 40.6225 105.639 41.2537C105.626 41.2797 104.313 43.8647 102.092 46.3819C100.211 48.5137 97.2572 51.055 93.8669 51.055C92.7131 51.055 91.6172 51.3059 90.6284 51.7531C90.6512 50.4447 90.6637 49.1416 90.6637 47.8519ZM118.828 87.11C113.595 87.11 108.683 85.3747 104.622 82.0922C100.675 78.9022 97.8872 74.4378 96.7712 69.5213C96.3994 67.8822 96.2109 66.19 96.2109 64.4925C96.2109 63.1981 95.1616 62.1487 93.8672 62.1487C92.1009 62.1487 90.6641 60.7119 90.6641 58.9456C90.6641 57.1794 92.1009 55.7425 93.8672 55.7425C100.974 55.7425 106.129 49.3069 108.457 45.7062C113.923 49.2253 120.175 50.4666 125.769 51.5775C136.07 53.6225 141.445 55.1256 141.445 64.4928C141.445 66.1906 141.257 67.8825 140.885 69.5216C139.769 74.4381 136.981 78.9025 133.035 82.0925C128.974 85.375 124.061 87.11 118.828 87.11ZM88.0919 87.8825C88.5066 84.2456 89.4194 75.6916 90.0381 65.8372C90.5291 66.1109 91.0491 66.3384 91.5969 66.5034C91.6969 67.8716 91.8984 69.2291 92.2003 70.5587C93.5481 76.4978 96.9131 81.8887 101.675 85.7378C102.845 86.6834 104.089 87.5237 105.391 88.2581V92.2931C96.3694 90.5028 90.6869 88.7644 88.0919 87.8825ZM118.828 117.618C110.022 117.618 102.31 111.836 99.8137 103.467L105.118 101.345C108.131 100.14 110.078 97.2641 110.078 94.0187V90.3484C112.881 91.2966 115.838 91.7978 118.828 91.7978C121.818 91.7978 124.775 91.2966 127.578 90.3484V94.0187C127.578 97.2641 129.525 100.14 132.538 101.345L137.843 103.467C135.346 111.836 127.635 117.618 118.828 117.618Z" fill="#b2974a"/>
</svg>
