<svg width="160" height="160" viewBox="0 0 160 160" fill="none" xmlns="http://www.w3.org/2000/svg">
<path d="M89.4137 77.7441C88.1193 77.7441 87.0699 78.7935 87.0699 80.0879C87.0699 83.9863 83.8984 87.1579 79.9999 87.1579C76.1015 87.1579 72.9299 83.9863 72.9299 80.0879C72.9299 78.7935 71.8806 77.7441 70.5862 77.7441C69.2918 77.7441 68.2424 78.7935 68.2424 80.0879C68.2424 86.571 73.5168 91.8454 79.9999 91.8454C86.4831 91.8454 91.7574 86.571 91.7574 80.0879C91.7574 78.7935 90.7081 77.7441 89.4137 77.7441Z" fill="#b2974a"/>
<path d="M69.7057 68.8673C69.7057 62.6132 64.6176 57.5254 58.3638 57.5254C52.1101 57.5254 47.022 62.6132 47.022 68.8673C47.022 70.1616 48.0713 71.211 49.3657 71.211C50.6601 71.211 51.7095 70.1616 51.7095 68.8673C51.7095 65.1979 54.6945 62.2129 58.3638 62.2129C62.0332 62.2129 65.0182 65.1979 65.0182 68.8673C65.0182 70.1616 66.0676 71.211 67.362 71.211C68.6564 71.211 69.7057 70.1616 69.7057 68.8673Z" fill="#b2974a"/>
<path d="M101.636 57.5254C95.382 57.5254 90.2942 62.6132 90.2942 68.8673C90.2942 70.1616 91.3436 71.211 92.6379 71.211C93.9323 71.211 94.9817 70.1616 94.9817 68.8673C94.9817 65.1979 97.967 62.2129 101.636 62.2129C105.305 62.2129 108.29 65.1979 108.29 68.8673C108.29 70.1616 109.34 71.211 110.634 71.211C111.929 71.211 112.978 70.1616 112.978 68.8673C112.978 62.6132 107.89 57.5254 101.636 57.5254Z" fill="#b2974a"/>
<path d="M125.631 46.0397C123.25 34.28 116.376 23.85 106.219 16.9722C105.191 11.1784 101.225 6.71187 96.1989 3.70187C95.088 3.03656 93.6486 3.39781 92.9839 4.50875C92.3189 5.61906 92.6802 7.05844 93.7905 7.72375C95.6033 8.80906 96.5171 9.77312 96.8546 10.0031C99.4952 11.9537 101.642 15.8513 101.746 19.0659C101.838 21.7931 101.075 24.8397 98.9543 26.3734C98.9346 26.3878 98.9152 26.4022 98.8961 26.4169C97.1155 27.7909 95.823 29.6581 95.823 31.8894C95.823 31.9044 95.8246 31.9194 95.8246 31.9341C95.8396 33.8006 96.6405 34.8575 97.5414 36.3406C93.6752 34.7278 90.2646 32.9044 87.3555 30.8916C83.8743 28.4837 79.7464 31.2381 78.4821 34.4969C77.4114 37.2012 78.5521 39 79.7949 41.0463C74.2252 38.7191 69.5724 35.9488 66.1368 32.8931C61.7658 29.0059 59.4555 24.7231 59.4555 20.5084C59.4555 17.8012 59.4499 18.1431 59.4718 17.68C59.7861 11.035 67.2955 3.23031 84.4061 4.85781C85.6964 4.98094 86.8386 4.035 86.9611 2.74656C87.0836 1.45812 86.1383 0.314062 84.8499 0.191562C83.0689 0.021875 81.458 0 80.2533 0C79.4914 0 78.7561 0.01 78.1827 0.01C66.118 0.01 56.158 7.11281 54.9039 16.2019C48.6121 20.1944 43.3343 25.6775 39.5955 32.1281C37.0889 36.4528 35.3139 41.1597 34.3202 46.0434C25.3605 46.7297 18.2783 54.2341 18.2783 63.3669C18.2783 72.4978 25.3577 80.0009 34.3152 80.6897C36.4358 91.1003 42.0649 100.249 49.9074 106.848C40.413 114.176 34.8343 125.418 34.8343 137.542V142.124C34.8343 143.418 35.8836 144.468 37.178 144.468C38.4724 144.468 39.5218 143.418 39.5218 142.124V137.542C39.5218 129.018 42.6602 120.99 48.1858 114.82V118.22C48.1858 135.797 62.4855 150.096 80.0624 150.096C97.6393 150.096 111.939 135.797 111.939 118.22V114.824C114.433 117.613 116.463 120.803 117.939 124.305C117.94 124.307 117.941 124.309 117.942 124.312C119.708 128.502 120.603 132.954 120.603 137.542V155.312H39.5214V153.061C39.5214 151.767 38.4721 150.717 37.1777 150.717C35.8833 150.717 34.8339 151.767 34.8339 153.061V157.656C34.8339 158.951 35.8833 160 37.1777 160H122.947C124.241 160 125.291 158.951 125.291 157.656V137.542C125.291 132.325 124.271 127.261 122.261 122.491C122.261 122.488 122.259 122.486 122.258 122.483C119.654 116.306 115.545 110.979 110.281 106.899C110.235 106.863 110.189 106.827 110.143 106.792C110.136 106.787 110.13 106.782 110.124 106.777C117.921 100.184 123.517 91.0653 125.631 80.6934C134.614 80.0309 141.722 72.5156 141.722 63.3663C141.722 54.2175 134.614 46.7025 125.631 46.0397ZM33.5993 75.8919C27.5764 74.9053 22.9658 69.6641 22.9658 63.3663C22.9658 57.0684 27.5764 51.8275 33.5993 50.8409C33.3368 53.5756 33.2152 71.8872 33.5993 75.8919ZM107.251 118.219C107.251 133.212 95.0543 145.408 80.0621 145.408C65.0699 145.408 52.873 133.212 52.873 118.219V110.482C53.1796 110.247 53.4896 110.018 53.8014 109.795C55.1052 110.676 56.4574 111.491 57.8508 112.239V118.22C57.8508 130.467 67.8149 140.431 80.0624 140.431C92.3099 140.431 102.274 130.467 102.274 118.22V112.145C103.638 111.406 104.96 110.6 106.237 109.732C106.578 109.975 106.917 110.224 107.252 110.481L107.251 118.219ZM62.5383 118.219V114.425C68.5814 116.84 74.2421 117.708 80.2924 117.708C86.4036 117.708 92.2408 116.515 97.5861 114.353V118.219C97.5861 127.882 89.7249 135.743 80.0621 135.743C70.3993 135.743 62.5383 127.882 62.5383 118.219ZM121.365 77.9362C118.139 98.4075 100.348 113.021 79.9999 113.021C64.728 113.021 55.7714 105.036 54.6764 104.661C46.2418 98.3037 40.2955 88.8141 38.5814 77.9362C37.9227 73.7372 38.0727 71.8694 38.0727 55.2938C38.0727 42.5528 44.1027 29.9575 54.8302 21.9384C55.9768 35.0975 71.9921 43.7313 84.5596 47.7913C86.6221 48.4575 88.4021 46.1859 87.283 44.3441L82.9933 37.2831C82.9196 37.1619 82.8652 37.0472 82.8277 36.9372C82.6377 36.4797 82.9699 35.9553 82.9855 35.9281C83.2089 35.5531 83.598 35.1509 84.1258 34.7603C84.3627 34.6291 84.583 34.6603 84.6883 34.7463C85.7505 35.4813 86.8746 36.1903 88.0518 36.8759C89.8393 37.9169 91.7536 38.9012 93.7955 39.8231C96.4296 41.0125 99.2699 42.1003 102.303 43.0803C103.234 43.3812 104.255 43.0712 104.862 42.3031C105.469 41.535 105.535 40.47 105.026 39.6334L100.737 32.5728C99.918 31.2263 101.632 30.3356 102.66 29.3809C104.556 27.62 105.65 25.2588 106.142 22.7194C116.11 30.6184 121.873 42.5556 121.873 55.2938C121.874 72.6722 122.009 73.8341 121.365 77.9362ZM126.347 75.9006C126.733 71.8881 126.613 53.6078 126.348 50.8328C132.397 51.7975 137.034 57.0509 137.034 63.3666C137.034 69.6831 132.396 74.9366 126.347 75.9006Z" fill="#b2974a"/>
</svg>
